<svg width="360" height="360" viewBox="0 0 360 360" fill="none" xmlns="http://www.w3.org/2000/svg">
<path opacity="0.99" d="M180 359C278.859 359 359 278.859 359 180C359 81.141 278.859 1 180 1C81.141 1 1 81.141 1 180C1 278.859 81.141 359 180 359Z" fill="white" stroke="black" stroke-width="2" stroke-linejoin="round"/>
<path d="M200.49 162.3V287.09H211.77V162.3H200.49ZM81.09 162.7L77.34 174.16H64.41L74.81 182.1L70.7 194.99L81.09 186.99L91.57 194.65L87.74 182.1L98.04 174.16H85.04L81.12 162.7H81.09ZM151.84 163.38V287.77H163.12V163.38H151.84ZM135.84 176.71V287.09H147.03V176.71H135.84ZM217.07 176.71V287.09H228.34V176.71H217.07ZM233.16 189.46V281.2H244.44V189.46H233.16ZM119.56 189.58V281.3H130.84V189.58H119.56ZM168.39 194.46V286.9H179.7V194.46H168.39ZM184.3 194.46V286.9H195.34V194.46H184.3Z" fill="black"/>
<path d="M167.14 13.99L152.33 15.99L155.24 37.2L170.36 35.2L170.08 32.84L157.6 34.41L156.84 27.14L168.21 25.67L167.81 23.22L156.34 24.73L155.45 17.86L167.4 16.3L167.14 13.99ZM177.53 14.08L177.25 35.48H180.07L180.34 18.57L190.82 35.74H194.07L194.38 14.34H191.62L191.31 31.6L180.96 13.99L177.53 14.08ZM200.67 14.57L200.34 16.79L207.34 17.96L204.49 36.9L207.34 37.39L210.34 18.57L216.93 19.57L217.3 17.21L200.71 14.54L200.67 14.57ZM142.89 17.42L138.89 18.62L138.34 37.51L127.5 21.99L123.39 23.07L129.46 43.57L132.41 42.78L127.5 26.68L137.89 41.12L140.53 40.32L141.24 22.39L146.14 38.76L148.99 37.76L142.89 17.34V17.42ZM233.65 22.82L232 23.03L231 23.31L229.65 24.01L228.45 24.78L227.29 25.67L226 27.14L225.2 28.31L224.53 29.9L223.95 32.35L223.85 33.61L223.76 35.88L224.04 38.15L224.53 39.62L225.53 41.18L226.11 42.04L226.91 42.65L227.71 43.33L228.71 43.82L230.36 44.4L231.74 44.8L233.34 44.99H235.21L236.77 44.69L239.22 43.61L241.22 42.14L242.51 40.36L243.34 38.99L243.83 38.14L244.01 37.55L244.23 36.94L244.6 34.21L244.72 32.92L244.63 30.99L244.44 29.99L243.86 28.43L243.16 27.05L241.9 25.76L240.8 24.81L239.63 24.11L237.63 23.11L235.27 22.71L233.65 22.82ZM117.2 24.64L101.87 31.72L102.98 33.87L109.54 30.87L117.69 48.13L120.34 46.8L112.18 29.54L118.28 26.69L117.21 24.64H117.2ZM233.34 25.44H235.43L236.78 25.62L237.88 26.11L238.56 26.42L239.44 27.09L240.61 28.47L241.41 30.03L241.68 30.71L241.9 32.39L241.68 34.99L241.19 36.28L240.61 37.84L239.72 39.22L238.72 40.38L237.06 41.67L235.99 42.25L235.19 42.44L233.63 42.65H232.83L231.36 42.25L230.96 42.04L229.71 41.36L228.63 40.6L227.93 39.99L227.34 38.99L226.85 38.14L226.75 37.34L226.45 36.27V33.47L226.75 32L227.15 30.92L227.64 30.03L228.41 28.65L229.3 27.58L230.59 26.58L231.26 26.09L232.33 25.6L233.33 25.42L233.34 25.44ZM253.18 30.71L243.06 49.56L245.51 50.76L250.05 42.3L259.05 47.2L260.23 44.99L251.23 40.18L254.54 34.08L264.65 39.6L265.82 37.54L253.19 30.74L253.18 30.71ZM95.01 35.92L93.57 36.23L92.37 36.9L83.24 42.6L94.73 60.66L97.06 59.28L91.97 51.43L98.04 47.69L99.64 47.2H100.34L101.01 47.29L101.72 47.69L102.61 48.49L105.61 52.6L106.1 53.09L106.41 53.39L109.35 51.39L108.86 50.81H108.28L107.88 50.59L106.88 49.92L105.59 47.92L104.52 46.23L103.23 45.06L101.76 44.57L100.47 44.48L101.09 43.38L101.18 42.21V41.54L101.09 40.34L100.96 39.76L100.2 38.38L99.31 37.52L97.31 36.33L96.05 35.93L95.01 35.92ZM95.41 38.86L96.2 38.95L96.88 39.26L97.37 39.75L97.77 40.15L98.34 40.99L98.52 41.6V43.09L98.15 44.26L97.66 44.75L97.27 45.24L96.96 45.33L90.8 49.28L86.97 43.28L92.55 39.66L93.65 39.17L94.65 38.95L95.42 38.86H95.41ZM276.72 43.77L264.06 61.06L266.42 62.71L271.91 54.99L280.74 61.36L275.07 69.12L277.4 70.77L289.96 53.51L287.7 51.86L282.34 59.06L273.73 52.72L278.91 45.45L276.76 43.77H276.72ZM69.34 53.39L66.67 55.54L74.13 76.99L76.68 74.84L74.34 68.69L80.62 63.69L86.49 66.99L88.94 64.99L69.34 53.39ZM70.41 57.22L78.48 62.22L73.34 66.36L70.34 57.22H70.41ZM163.12 62.99L151.84 71.45V157.77H163.12V62.99ZM200.49 64.06V157.99H211.86V72.51L200.49 64.08V64.06ZM297.72 64.73L296.25 64.95L294.87 65.35L293.1 66.11L292.82 66.33L292.33 66.7L291.04 67.8L289.66 69.24L288.9 70.13L287.52 72.58L287.03 73.58L286.72 74.78L286.54 75.67V77.14L286.63 78.21L286.84 79.1L287.42 80.57L287.92 81.57L288.68 82.43L289.39 83.23L290.46 84.23L291.46 85L293.46 86L295.52 86.7L297.11 86.79L298.68 86.61L300.24 86.3L300.73 86L302.6 85.14L304.25 83.94L305.14 82.94L306.52 81.29L307.29 80.21L308.09 78.53L308.39 77.46L308.76 75.98V74.79L308.58 73.32L308.27 72.43L307.78 71.05L307.38 70.16L306.61 69.09L305.45 67.83L303.67 66.24L302.11 65.56L300.73 65.07L299.17 64.77H297.69L297.72 64.73ZM56.34 65.99L54.78 66.39L54.01 66.88L52.94 67.95L46.64 75.46L63.22 89.19L64.91 87.05L57.83 81.26L62.55 75.46L63.22 74.66L63.53 73.59L63.71 72.59L63.62 71.7L63.34 70.83L62.64 69.27L61.64 67.92L60.96 67.34L59.77 66.54L58.2 66.05L57.15 65.99H56.34ZM297.8 67.55H299.34L301.21 67.95L302.68 68.72L303.48 69.42L303.76 69.61L304.76 70.77L305.46 72.15L305.74 73.15L305.95 74.53V75.6L305.55 77.08L305.37 77.96L304.57 79.34L303.9 80.11L302.03 81.8L300.74 82.87L298.87 83.54L297.12 83.94H295.84L294.34 83.71L292.87 83.12L292.08 82.33L291.49 81.75L291.19 81.56L290.33 80.27L289.84 79.11L289.44 77.91V75.55L289.84 74.67L290.6 72.61L292.08 70.61L293.76 69.23L295.51 68.16L296.8 67.79L297.87 67.48L297.8 67.55ZM57.06 68.78L57.92 68.99L58.72 69.39L59.21 69.48L59.88 70.25L60.5 71.32L60.68 72.03V72.92L60.59 74.08V74.18L55.96 79.79L50.6 75.16L54.8 69.99L55.19 69.59L55.34 69.39L55.83 69.09L57.02 68.78H57.06ZM146.54 74.67L135.44 83.13V171.71H146.54V74.67ZM216.77 74.79V171.79H227.96V83.22L216.77 74.79V74.79ZM39.68 82.24L32.63 95.3L51.34 105.38L58.7 92.05L56.43 91.05L50.57 101.84L44.17 98.41L49.78 88.41L47.51 87.12L42.04 97.23L36.04 93.92L41.83 83.4L39.68 82.24ZM318.81 82.82L306.24 91.46L305.57 92.05L304.68 93.43L303.91 94.8L303.61 96.15V97.75L303.79 99.19L304.68 101.19L305.97 103.19L307.62 104.66L309.4 105.83L310.75 106.23L312.22 106.41L313.51 106.23L314.21 106.04L315.69 105.25L328.13 96.6L326.57 94.24L314 102.79L312.44 103.47L311.06 103.56L310.57 103.47L309.28 103.07L308.42 102.4L307.72 101.81L306.86 100.62L306.37 99.73L306.06 98.87L305.97 97.28L306.24 95.99L306.55 95.41L307.41 94.33L308.02 93.94L320.56 85.38L318.81 82.84V82.82ZM130.05 86.25L118.95 94.68V185.45H130.05V86.25ZM233.26 87.05V185.93H244.45V95.39L233.26 87.05ZM31.65 104.61L30.18 104.89L28.8 105.29L27.73 105.78L26.63 106.48L25.46 107.65L24.7 108.99L24.08 109.99L20.96 117.99L41.16 125.62L44.16 117.68L44.65 115.41V113.94L44.38 112.47L44.07 111.61L43.27 110.41L42.27 109.34L40.03 107.34L36.6 105.59L34.87 104.99L33.22 104.59L31.65 104.61ZM180.2 105.1L178.91 105.2L177.91 105.29L176.62 105.78L175.55 106.36L174.38 107.25L173 108.54L172.42 109.54L171.81 110.61L171.44 111.78L171.14 112.85L171.04 114.32H177.42L168.59 124.16V188.59H194.19V120.71L187.56 109.99L187.07 109.1L186.36 108.03L185.47 106.95L184.47 106.25L183.3 105.76L182.6 105.36L181.43 105.18L180.18 105.08L180.2 105.1ZM328.34 105.99L326.96 106.36L325.49 107.16L324.88 107.56L324.21 108.56L323.72 109.63L323.41 111.38L323.5 112.66L324.88 118.37L325.19 119.44L325 121L324.7 121.8L324.11 122.56L323.5 122.96L323.01 123.18L322.15 123.27H321.45L320.1 122.69L319.1 121.89L317.99 120.73L317.41 119.53L317.14 118.46L316.92 117.08V116.08L317.32 114.61L317.99 113.81L319.1 112.64L319.68 112.34L318.39 109.88L317.53 110.37L316.83 110.87L315.66 112.06L315.17 112.64L314.56 114.11L314.19 115.68V116.47L314.38 117.95L314.87 119.51L315.45 121.1L316.34 122.45L317.34 123.65L318.63 124.72L319.88 125.49L321.26 125.98L322.64 126.28L323.41 126.07L324.88 125.7L325.68 125.3L326.75 124.51L327.33 123.51L327.95 122.43L328.13 120.69L328.04 118.42L326.66 112.13V110.75L326.84 109.99L327.33 109.19L327.82 109.1L328.71 108.7H329.51L330.31 108.91L331.47 109.59L332.15 110.17L332.94 111.17L333.53 112.55L334.02 114.3L333.83 115.59L333.62 116.38L333.43 116.66L332.94 117.27L332.27 117.85L331.87 118.04L333.22 120.61L334.11 120L334.91 119.42L335.58 118.62L335.98 117.85L336.38 116.85L336.47 114.85L336.38 113.75L336.07 112.58L335.34 110.59L334.85 109.79L333.47 108.04L332.68 107.25L331.6 106.57L330.71 106.17L329.06 105.99H328.34V105.99ZM31.65 107.99H33.03L34.59 108.27L37.35 109.27L38.61 109.95L39.77 110.83L41.15 112.31L41.64 113.31L42.04 114.38V114.99L41.86 115.99L39.49 121.87L24.34 116.26L26.34 110.99L27.02 109.79L28.02 108.94L29.02 108.32L30.22 108.05L31.69 107.96L31.65 107.99ZM342.65 127.89L322.02 133.89L322.72 136.43L343.32 130.43L342.65 127.89ZM33.03 136.19L32.34 139.34L35.34 140.2L36.23 136.98L33.01 136.19H33.03ZM18.68 137.87L17.43 138.15L16.23 138.64L15.07 139.71L13.78 141.58L12.89 143.85L12.8 144.25L12.61 145.72L12.52 146.88L12.61 148.57L12.8 149.57L13.6 150.92L14.48 151.92L15.96 152.81L16.34 152.99L17.94 153.39H19.41L20.48 152.99L21.37 152.32L22.37 151.52L23.14 150.52L25.14 146.52L25.63 145.27L26.63 143.89L27.83 143.09L28.68 142.69H29.08L30.28 142.91L31.04 143.31L31.63 143.89L32.12 144.69L32.42 145.45L32.52 146.92L32.42 147.81V148.88L31.84 150.36L31.35 151.15L30.77 151.92L29.48 152.81L28.68 153.21L27.61 153.39H26.61L26.03 153.21L25.34 155.8L26.99 156.2H27.99L29.37 155.8L30.17 155.53L31.52 154.64L32.71 153.57L33.11 152.95L34.18 150.81L34.86 148.45L34.98 146.88L34.86 145.23L34.58 143.76L33.88 142.47L33.02 141.3L31.92 140.3L31.15 139.81L29.68 139.35H28.34L27.76 139.63L26.19 140.21L25.61 140.52L24.42 141.68L23.74 142.68L21.53 146.99L20.34 148.84L19.45 149.92L19.05 150.04L18.25 150.41L17.89 150.53L17.49 150.41L16.69 150.04L15.93 149.55L15.53 148.85L15.04 148.17L14.82 147.17L15.04 145.39L15.22 144.01L15.62 143.12L16.2 142.45L16.78 141.78L17.4 141.29L18.16 140.89L18.96 140.67L19.73 140.79L20.25 140.89L20.83 138.25L20.12 138.04L18.65 137.85L18.68 137.87ZM346.1 140.29L325.01 144.29L325.59 147.05L342.34 143.85L327.64 157.67L328.13 160.83L349.34 156.91L348.76 154.15L331.81 157.4L346.81 143.76L346.14 140.29H346.1ZM27.73 161.81L27.42 164.99L30.76 165.3L30.94 162.14L27.73 161.86V161.81ZM280.92 163.56L277.21 175.15H264.28L274.76 182.99L270.53 195.84L280.92 187.9L291.43 195.44L287.6 182.99L298 175.14H284.75L280.92 163.55V163.56ZM9.86001 164.56L9.76001 167.56L24.97 168.45L26.53 168.94L27.33 169.43L28.1 170.02L28.59 170.72L28.89 171.72L29.29 172.72V173.61L29.2 175.18L28.8 176.06L28.4 176.95L27.82 177.63L27.24 178.3L26.35 178.79L25.35 179.19L9.07001 178.19L8.98001 181.19L24.06 182.08L25.84 181.99L27.31 181.41L28.07 180.92L29.27 179.92L30.53 178.14L30.74 177.47L31.42 175.29L31.51 173.14L31.42 171.67L31.14 170.87L30.65 169.5L30.34 168.99L29.34 167.71L28.94 167.22L27.94 166.45L27.34 165.99L25.96 165.59L25.1 165.5L9.87001 164.5L9.86001 164.56ZM340.08 164.65L335.98 165.26L333.52 166.34L332.14 167.2L330.58 168.79L329.58 170.05L329 171.34L328.6 173.51L328.44 174.99L328.71 176.34L329.02 177.94L329.6 179.41L331.16 181.34L332.36 182.53L329.91 183.21L330.09 185.26L341.46 184.19L340.6 175.19L338.12 175.28L338.74 182.05L337.63 182.14L335.88 182.05L335.18 181.65L333.83 180.98L333.34 180.49L332.27 179.2L332.05 178.71L331.38 176.96L331.16 175.77V173.71L331.38 172.92L331.87 171.75L332.54 170.37L333.03 169.88L334.03 169.09L336.39 168.09L339.25 167.6H341.3L342.19 167.7L344.55 168.49L345.93 169.49L346.79 170.29L347.37 171.18L347.86 172.53L348.26 173.63L348.47 174.63V175.63L348.16 177.2L347.86 177.99L347.09 179.25L346.09 180.33L344.93 181.03H344.71L344.93 183.76L346 183.48L346.67 183.27L347.84 182.5L348.45 182.1L349.31 180.81L350.02 179.81L350.6 178.47L351 176.2V174.54L350.78 173.35L350.11 171.08L349.62 170.08L348.73 168.82L347.47 167.35L346.4 166.55L344.71 165.66L342.44 164.99L340.08 164.68V164.65ZM328.71 200.76L325.28 217.16L327.55 217.65L329.02 210.65L347.84 214.65L348.45 211.58L329.6 207.75L330.98 201.19L328.71 200.79V200.76ZM12.21 202.14L13.01 205.3L19.48 205.79L21.34 213.62L16.04 217.33L16.8 220.48L35.74 207.7L34.86 204.39L12.2 202.12L12.21 202.14ZM22.11 205.88L31.74 206.95L23.74 212.13L22.14 205.88H22.11ZM35.26 219.19L15.16 226.55L16.23 229.19L32.14 223.43L20.06 239.43L21.13 242.49L41.13 234.92L40.24 232.47L23.96 238.54L36.53 222.35L35.24 219.23L35.26 219.19ZM323.99 220.76L323.13 223.42L339.5 228.82L319.88 233.63L318.81 236.76L339.23 243.44L340.08 240.77L323.81 235.47L343.33 230.47L344.41 227.47L323.99 220.79V220.76ZM42.62 239.89L24.34 250.58L28.54 258.06L29.25 259.14L30.25 260.3L31.6 261.19L32.39 261.59L33.87 261.86L35.34 261.99L37.34 261.86L39.12 261.28L40.5 260.79L40.99 260.7L41.35 260.39L42.73 259.72L44.2 258.65L45.77 257.27L46.47 256.47L46.96 255.47L47.73 253.81L48.13 251.73V250.87L47.94 249.27L47.64 248.6L47.06 247.13L42.73 239.86L42.62 239.89ZM315.68 242.16L308.91 255.21L328.04 264.99L334.9 251.35L332.63 250.35L326.96 261.23L320.68 258.11L325.98 247.81L323.5 246.7L318.34 257.05L312.24 253.83L317.66 243.23L315.66 242.16H315.68ZM41.95 243.63L44.67 248.32L44.89 249.02L45.07 249.7L45.34 250.89L45.25 251.47L44.85 252.64L44.24 253.83L42.89 255.49L40.43 257.27L37.8 258.55L35.71 259.14H34.59L33.39 258.92L32.34 258.55L31.54 257.85L31.18 257.27L28.02 251.66L42.02 243.66L41.95 243.63ZM304.95 259.9L302.34 262.99L312.24 279.17L294.67 272.17L292.04 275.33L308.44 289.06L310.44 286.8L297.44 276.13L314.03 282.47L315.8 280.24L306.34 264.9L319.46 275.81L321.46 273.64L305 259.9H304.95ZM61.05 268.55L49.46 278.45L48.39 279.92L47.99 280.59L47.5 282.07L47.31 282.86V284.33L47.5 284.92L47.9 286.51L48.69 287.77L49.46 289.06L50.56 290.13L52.34 291.51L53.63 292.18L55.01 292.49L56.36 292.58H57.15L58.41 292.27L59.11 292L60.37 291.11L71.96 281.11L70.09 278.87L58.41 288.77L57.06 289.77L56.06 289.98H55.17L54.17 289.89L53.77 289.59L52.56 288.99L52.16 288.6L51.16 287.6L50.36 286.32L50.17 285.73L49.96 284.36V283.47L50.17 282.47L50.67 281.7L51.43 280.81L63.02 270.81L61.02 268.54L61.05 268.55ZM289.63 280.41L288.63 280.81L288.17 280.99L287.07 281.7L286.98 281.79L279.53 288.26L293.66 304.44L295.71 302.7L289.71 295.7L295.2 290.91L296.2 289.84L296.69 288.74L296.88 287.85L296.97 287.08L296.88 286.08L296.48 284.88L295.8 283.63L295.01 282.43L293.53 281.27L292.53 280.87L290.97 280.38L289.63 280.41ZM290.12 283.41H290.92L291.72 283.63L292.88 284.3L293.56 285.3L293.95 286.38V288.06L293.56 289.14V289.35L288.19 294.04L283.56 288.65L288.38 284.23L288.87 283.83L290.12 283.43V283.41ZM77.34 285.62L63.21 301.62L65.21 303.55L71.34 296.69L76.73 301.41L77.41 302.51L77.81 303.77L77.62 304.93L77.13 306.04L74.19 309.56L73.57 310.82L76.03 313.09L76.52 312.69L76.43 311.8L76.73 310.73L77.13 310.15L79.34 307.79L80.04 306.62L80.44 305.92L80.63 304.44L80.44 302.79L81.12 303.1H82.28L83.35 302.88L84.24 302.51L85.13 301.72L86.13 300.83L86.72 299.75L87.11 298.65L87.42 297.58V296.58L87.11 295.58L86.72 294.51L86.23 293.62L85.46 292.83L77.34 285.62ZM77.73 289.45L82.73 293.96L83.93 295.61L84.29 296.41V297.57L84.2 298.28L84.02 298.56L83.22 299.75L82.45 300.24L81.84 300.43L80.77 300.64L79.91 300.52L79.3 300.24L78.72 299.84L78.53 299.75L73.01 294.75L77.74 289.48L77.73 289.45ZM272.2 295.21L269.84 295.7L269.53 295.92L269.04 296.01L268.64 296.32L267.08 296.99L265.7 298.16L264.81 298.96L263.86 300.24L263.37 301.24L262.76 302.62L262.39 303.57L262.27 304.95L262.39 307.4L262.58 308.29L262.97 309.58L263.37 310.44L263.74 311.24L264.54 312.31L266.1 314.18L266.99 315.07L268.64 316.36L270.02 317.03L272.11 317.61L274.11 317.7L275.11 317.61L276.58 317.24L278.24 316.54L278.64 316.23L280.2 315.07L281.09 314.18L281.85 313.29L282.56 312.29L283.42 310.42L283.63 309.42L283.82 307.76V306.87L283.63 304.87L283.23 303.8L281.85 300.85L279.99 298.59L278.99 297.82L277.65 296.72L276.17 295.95L275.17 295.64L274.17 295.55L272.17 295.24L272.2 295.21ZM271.89 298.07H273.34L274.42 298.28L276.01 299.05L276.78 299.75L277.85 300.52L278.56 301.41L279.56 303.09L280.63 305.73L280.81 306.62L280.91 308.09V308.85L280.32 310.91L279.74 311.91L279.34 312.58L278.45 313.26L277.2 314.15L276.31 314.64L274.93 314.95L273.76 315.04L271.76 314.64L270.76 314.24L269.76 313.75L268.34 312.41L267.05 311.12L266.96 310.82L266.07 309.44L265.49 307.87L265.27 306.99L265.09 305.73L265.27 304.35V303.67L265.67 302.6L266.16 301.6L267.16 300.22L268.54 299.15L269.92 298.35L270.32 298.26L271.98 298.04L271.89 298.07ZM95.89 300.24L84.71 318.48L93.45 323.78L93.85 324.06L94.92 324.37H95.63L95.81 324.46L97.68 324.37L97.77 324.27L98.45 324.18L99.06 323.88L100.06 323.29L100.86 322.59L101.26 322.01L101.84 321.01L102.33 320.01L102.64 319.12L102.54 317.47L102.33 316.67L101.26 315.23L101.84 315.32L102.73 315.11L103.8 314.74L104.11 314.62L105.11 313.94L105.29 313.55L106.29 312.07L106.6 311.19L106.69 309.53L106.29 307.84L105.4 306.37L104.24 305.12L95.99 300.21L95.89 300.24ZM97.06 303.55L101.38 306.1L102.27 306.71L102.85 307.38L103.34 308.18L103.46 308.86L103.65 309.56V310.14L103.46 310.82L102.97 311.71L101.97 312.6L101.48 312.9L100.96 312.99H100.34L99.66 312.9L99.08 312.69L98.77 312.29L93.68 309.29L97.09 303.59L97.06 303.55ZM250.34 308.09L247.71 309.44L257.21 328.5L269.16 322.68L268 320.35L258.77 324.95L250.34 308.09ZM92.19 311.61L98.26 315.35L99.06 316.21L99.34 316.92L99.52 317.5L99.64 318.08V318.66L99.34 319.77L98.85 320.44L98.45 320.93L97.37 321.52L96.21 321.61L95.63 321.52L94.92 321.42L88.55 317.5L92.19 311.61V311.61ZM118.37 312.1L102.86 328.87L105.93 330.07L110.34 325.35L117.7 328.35L117.39 334.91L120.24 336.29L121.62 313.45L118.34 312.1H118.37ZM240.22 312.41L226.67 318.08L234.82 337.91L248.95 332.12L247.88 329.67L236.42 334.45L233.66 327.8L244.36 323.48L243.36 321.12L232.76 325.53L230.12 319.16L241.12 314.65L240.23 312.41H240.22ZM118.59 316.34L117.79 325.75L111.91 323.17L118.59 316.34V316.34ZM129.75 316.7L123.98 337.3L126.62 338.1L131.22 321.61L137.13 341.04L140.13 341.84L145.95 321.21L143.19 320.44L138.59 337.12L133.08 317.59L129.74 316.7H129.75ZM220.51 319.7L217.57 320.4L215.42 339.22L205.61 322.85L202.76 323.53L214.76 342.87L217.7 342.17L220.55 319.7H220.51ZM199.34 323.78L184.49 324.99L186.27 346.29L201.57 345.13L201.29 342.65L188.91 343.65L188.23 336.47L199.82 335.58L199.6 333.04L188.14 333.9L187.43 326.9L199.51 326.01L199.34 323.79V323.78ZM161.76 324.27L160.96 345.67L169.48 345.95H170.68L172.82 345.36L174.02 344.78L174.81 344.2L175.89 343.2L176.38 342.4L177.05 341.02L177.54 339.76L178.13 337.28L178.34 334.99L178.25 332.66L178.03 331.47L177.54 330.12L176.78 328.43L175.89 327.27L174.6 326.2L172.82 325.09L171.35 324.72L170.28 324.51L161.76 324.32V324.27ZM164.39 326.82L169.97 327.03L171.26 327.22L172.33 327.8L173.33 328.69L174.04 329.69L174.62 331.07L174.93 332.33L175.2 333.89V335.27L175.02 337.63L174.71 339.01L174.13 340.3L173.55 341.46L172.84 342.26L171.84 342.93L170.84 343.33L163.7 342.93L164.37 326.84L164.39 326.82Z" fill="black"/>
</svg>
