<svg width="359" height="362" viewBox="0 0 359 362" fill="none" xmlns="http://www.w3.org/2000/svg">
<path d="M174.911 1.34419C168.676 1.52014 165.056 5.39062 165.181 10.0913C165.508 21.4284 180.238 18.5628 180.44 26.1794C180.566 30.126 177.776 31.9864 174.156 32.1119C172.271 32.1622 168.726 31.2829 167.72 29.4479C167.067 28.191 166.438 26.3051 166.061 23.9673L164.578 24.3697L165.282 31.7097C167.544 33.2682 171.415 33.8714 174.457 33.8211C180.942 33.5949 184.537 29.5736 184.437 23.9175C184.162 14.9684 169.381 17.4565 169.156 8.9349C169.056 5.54112 171.366 3.45485 174.686 3.35435C178.407 3.22866 179.94 5.99377 180.719 9.2614L182.227 9.03484L181.398 2.12278C179.236 1.97195 177.075 1.29322 174.913 1.34347L174.911 1.34419ZM193.663 2.62645L193.462 4.10886L197.66 5.49167L193.739 31.7849L189.314 31.8855L189.089 33.3943L211.486 36.7127L214.427 29.4976L212.819 29.2466L210.329 33.7711L198.088 31.9361L199.923 19.946L208.068 21.1521L208.344 24.6462L209.651 24.8728C209.777 22.4345 210.38 18.2867 211.008 15.9487L209.727 15.7974L208.394 18.94L200.249 17.7339L201.985 6.39683L211.712 7.82944L212.265 12.3041L213.598 12.5297L213.975 5.66711L193.663 2.62608L193.663 2.62645ZM236.279 12.107C229.889 12.1574 225.172 15.8138 222.624 22.5346C218.451 33.5952 224.158 40.7348 233.685 44.2788C236.4 45.3343 239.442 46.0634 242.76 46.3902L247.912 41.8901L247.184 40.6831C243.539 43.6747 239.266 44.2785 234.892 42.6196C227.149 39.7539 224.208 30.779 227.426 22.2074C230.367 14.4648 236.123 12.6803 243.589 15.5209C251.608 18.5122 252.487 22.6604 251.507 26.6324L252.94 27.1852L255.303 19.4926C252.337 17.3308 247.51 14.8427 244.519 13.7366C241.535 12.6195 238.779 12.087 236.279 12.1067L236.279 12.107ZM119.207 12.5807L106.865 17.0553L107.418 18.5133L111.716 17.734L120.791 42.6697L116.92 44.907L117.472 46.3397L138.286 38.7986L137.18 29.9L135.798 30.403L135.421 36.9135L124.737 40.8091L115.889 16.2248L119.685 14.0129L119.207 12.5803L119.207 12.5807ZM264.604 23.1383L263.799 24.4195L266.942 27.4615L256.962 42.2422C252.991 47.8477 253.594 54.2578 261.412 59.4863C269.707 65.0919 276.017 62.1013 280.893 54.9121L289.239 42.5695L293.284 44.4045L294.164 43.1225L283.983 36.2099L283.103 37.4669L286.299 40.5839L277.723 53.2021C276.391 55.2382 274.179 58.4561 271.589 59.2351C268.321 60.2154 264.877 58.9081 263.068 57.6765C257.412 53.8557 257.688 48.7779 261.509 43.3484L270.584 29.9003L274.631 31.7098L275.46 30.5038L264.601 23.1387L264.604 23.1383ZM83.8417 28.8943L81.9061 30.1258L87.7637 61.2715L84.998 63.9366L85.7773 65.2687L95.2295 59.2861L94.4248 58.0039L90.3026 59.6631L88.1405 50.1105L97.7431 44.0775L105.912 49.884L102.645 52.8001L103.424 54.0823L114.334 47.2197L113.554 45.9628L109.909 47.3457L83.8413 28.8945L83.8417 28.8943ZM85.1717 35.1544L95.7318 42.6699L87.7117 47.723L85.1717 35.1544ZM63.7044 43.7509L53.9512 52.4735L54.9562 53.58L58.7267 51.2664L76.474 71.0001L73.7093 74.4943L74.7649 75.5997L84.5181 66.8772L83.5132 65.7463L79.7426 68.0842L61.9699 48.3261L64.7599 44.8319L63.7043 43.7508L63.7044 43.7509ZM301.178 49.709L300.072 50.6885L302.611 54.585L283.104 72.6087H283.103L279.383 69.7424L278.277 70.7991L287.301 80.6017L288.458 79.5216L286.02 75.8262L294.039 68.4102C295.22 69.6921 296.326 70.7991 297.407 71.7794C296.251 76.656 295.27 81.9089 294.591 87.1125C294.591 87.5146 295.447 89.0484 295.924 89.9787L297.583 93.0197L298.865 92.4924C297.809 89.6016 298.588 86.1828 299.066 83.4678L300.851 74.0407C304.446 74.8954 308.593 74.5439 311.383 71.9548C315.305 68.3601 314.074 63.7097 311.107 60.4422L301.177 49.7041L301.178 49.709ZM305.829 57.576C306.432 57.9533 307.06 58.5069 307.663 59.1855C311.107 62.8806 310.705 66.651 307.061 70.0195C302.46 74.2678 300.474 72.5081 296.754 68.4609L296.603 68.2852L296.427 68.084L296.352 68.0078L296.251 67.9082L296.176 67.832L296.101 67.7314L296.025 67.6562L295.949 67.5556L295.874 67.4804L295.799 67.3799L295.724 67.3047L295.647 67.2295L295.598 67.1533L295.548 67.0781L305.829 57.576L305.829 57.576ZM47.8655 59.3866C44.9244 61.5987 41.1284 65.4197 39.1429 67.9082C32.0293 76.7568 32.9348 85.2278 40.7777 91.4369C50.0783 98.7769 58.5994 95.5841 64.909 87.6155C66.6937 85.3532 68.2778 82.6884 69.6102 79.6465L66.9461 73.3379L65.5633 73.6641C67.2978 78.038 66.5686 82.2612 63.7029 85.9562C58.5499 92.4418 49.1487 92.4923 41.9596 86.7863C35.474 81.6333 35.574 75.6002 40.526 69.3407C45.8301 62.6541 50.0786 63.0561 53.5222 65.2684L54.5026 64.0369L47.8661 59.3865L47.8655 59.3866ZM325.534 77.5608L324.252 78.3655L326.037 82.4622L303.84 97.0678L300.798 93.8754L299.517 94.6791L306.782 105.665L308.063 104.835L306.279 100.738L328.399 86.1322V86.1332L331.441 89.3257L332.723 88.4955L325.534 77.561L325.534 77.5608ZM229.993 80.0237C211.163 79.8453 205.302 87.1632 205.302 87.1632H205.303L204.8 88.3703L204.323 89.551L203.845 90.6828L203.368 91.8137L202.89 92.8947L202.437 93.9758L201.959 94.9807L201.482 95.9866L201.004 96.967L200.526 97.8967L200.048 98.7766L199.571 99.6565L199.068 100.487L198.565 101.266L198.037 102.02L197.509 102.724L196.956 103.403L196.404 104.056L195.825 104.634L195.222 105.187L194.618 105.69L193.989 106.167L193.336 106.595L192.657 106.972L191.929 107.298L191.199 107.575L190.446 107.827L189.666 108.002L188.837 108.153L188.007 108.229L187.127 108.279L186.197 108.253C167.319 107.373 164.403 96.1877 164.228 94.6547C163.951 92.4928 167.947 90.1546 167.947 90.1546C166.891 90.1546 158.797 90.6582 148.566 87.6165C134.414 83.5191 134.364 93.222 134.364 93.222C134.364 93.222 116.968 88.6716 114.656 97.5199C113.55 101.668 114.531 107.6 114.531 107.6C114.531 107.6 127.149 100.888 136.852 108.857C145.148 115.769 146.858 121.476 158.798 135.151C164.907 142.064 180.341 164.812 199.873 154.557C199.873 154.557 197.208 149.429 184.162 140.732C178.456 136.961 169.707 133.09 164.127 128.616C158.924 124.392 156.812 122.708 146.43 110.743C142.056 105.716 128.758 98.9538 121.066 101.518C120.362 101.769 120.236 102.398 119.633 102.825C119.633 102.825 119.407 99.4564 119.909 98.1242C120.638 96.2389 128.432 95.6863 137.783 98.3508C137.783 98.3508 135.973 90.9347 143.313 92.2168C150.729 93.5239 157.994 96.0375 160.256 95.4092C160.256 95.4092 160.406 112.503 187.303 114.237C200.526 115.067 205.956 100.663 209.274 95.1582C210.28 93.5241 212.592 90.3315 214.98 89.7031C232.351 85.0778 264.274 85.4049 283.706 118.31C291.775 132.16 304.344 160.867 309.648 169.89C322.82 192.463 332.675 188.366 341.096 180.624C341.096 180.624 328.627 187.562 317.517 161.972C312.489 150.359 295.22 112.502 282.199 100.787C275.688 94.8542 266.21 85.8546 249.017 82.2601C241.555 80.7094 235.267 80.0717 229.994 80.0218L229.993 80.0237ZM118.961 83.6897C103.065 83.9988 90.7586 91.9568 79.7414 101.894C65.4133 114.839 56.3896 137.589 47.7675 156.014C39.4469 173.711 36.0273 176.073 28.7127 180.07L28.411 180.247L28.1346 180.397L27.8329 180.523L27.5321 180.648L27.2547 180.774L26.953 180.9L26.6766 181.001L26.4002 181.101L25.8475 181.277L25.3191 181.427L24.7918 181.553L24.2635 181.654L23.7605 181.705L23.283 181.755L22.8054 181.78L22.3533 181.805H21.9255L21.5242 181.78L21.1218 181.729L20.7195 181.679L20.3679 181.629L20.0154 181.553L19.6892 181.504L19.3874 181.403L19.1101 181.327L18.8591 181.252L18.6081 181.176L18.3815 181.076L18.2058 181.001L18.03 180.926L17.8786 180.875L17.778 180.8L17.6774 180.749L17.6022 180.724L17.5524 180.699C17.5524 180.699 23.686 187.612 29.2666 187.386C44.6003 186.832 55.686 161.418 59.758 153.073C65.1376 141.987 74.7147 117.277 90.6519 103.477C104.528 91.5362 118.931 88.3942 123.456 87.9922C132.908 87.2884 133.209 85.3525 133.209 85.3525C128.144 84.1153 123.413 83.6028 118.962 83.6894L118.961 83.6897ZM140.952 95.0813V95.1067H140.976V95.1311L141.002 95.1565L141.027 95.1819L141.052 95.2317L141.077 95.2571L141.128 95.3323L141.177 95.4085L141.253 95.5091L141.329 95.6096L141.404 95.7093L141.479 95.8352L141.554 95.9612L141.631 96.1116L141.731 96.263L141.806 96.4134L141.907 96.5647L142.007 96.7405L142.083 96.8909L142.183 97.0921L142.258 97.2679L142.334 97.4446L142.41 97.6448L142.485 97.8216L142.56 98.0227L142.61 98.2239L142.661 98.4241L142.711 98.6253L142.761 98.8265L142.787 99.0276L142.811 99.2288V99.43V99.6312C142.811 99.6312 145.426 97.419 151.007 97.5198C151.007 97.5198 143.441 95.4082 140.952 95.0813L140.952 95.0813ZM336.874 95.4084L329.509 97.6956L330.188 99.1282L335.316 98.5002C335.995 99.7319 336.648 101.064 337.327 102.496L339.59 107.524L315.583 118.308L312.818 114.111L311.41 114.714L317.293 127.735L318.675 127.107L317.343 122.305L341.35 111.521L343.688 116.65C344.341 118.209 344.944 119.691 345.447 121.049L341.35 124.014L342.028 125.523L348.84 122.029L336.875 95.4088L336.874 95.4084ZM231.373 95.595C223.856 95.6426 218.675 97.0178 218.675 97.0178C218.173 97.2943 216.916 97.9733 216.413 98.7776C214.527 101.995 211.938 107.199 211.938 107.199C251.278 109.134 259.197 157.122 259.197 157.122L260.052 157.524L260.907 157.926L261.736 158.328L262.54 158.756L263.32 159.157L264.099 159.585L264.828 160.013L265.557 160.414L266.261 160.816L266.939 161.244L267.593 161.646L268.222 162.023L268.85 162.425L269.428 162.802L269.981 163.154L270.509 163.53L271.012 163.858L271.49 164.209L271.942 164.511L272.344 164.813L272.747 165.089L273.098 165.366L273.425 165.617L273.702 165.844L273.978 166.045L274.205 166.221L274.406 166.371L274.556 166.497L274.682 166.598L274.783 166.673L274.833 166.724L274.858 166.748C274.856 166.743 265.657 136.759 254.321 121.578C244.366 108.305 228.756 103.73 228.756 103.73C251.003 102.448 258.141 111.85 265.833 122.533C273.802 133.442 285.868 171.4 293.51 179.068C299.065 184.724 308.165 185.78 308.165 185.78C306.004 182.839 296.979 168.234 289.789 150.211C281.169 128.345 270.714 110.75 261.789 104.49C251.414 97.2001 239.894 95.55 231.373 95.605L231.373 95.595ZM29.1703 96.9514C23.2297 96.9032 18.0506 100.145 14.7846 107.248C10.6871 116.096 14.1063 124.241 23.3572 128.489C31.4768 132.209 40.0229 130.123 44.7235 119.766L45.075 118.961L45.4022 118.132L45.6786 117.329L45.9051 116.524L46.1063 115.719L46.2567 114.915L46.3827 114.136L46.4579 113.357L46.5086 112.578V111.823L46.4579 111.069L46.4081 110.34L46.2821 109.611L46.1307 108.882L45.9549 108.178L45.7537 107.499L45.4774 106.821L45.201 106.167L44.8739 105.539L44.5223 104.911L44.1199 104.307L43.6932 103.704L43.24 103.151L42.7371 102.598L42.2097 102.07L41.657 101.567L41.0535 101.064L40.4246 100.612L39.7712 100.184L39.0925 99.7572L38.364 99.3802L37.6345 99.0033V99.0023C34.7305 97.6822 31.8734 96.9772 29.1729 96.9572L29.1703 96.9514ZM109.276 100.837L109.227 100.863L109.101 100.887L108.849 100.963L108.497 101.088L108.095 101.24L107.567 101.441L106.989 101.692L106.311 102.019L105.581 102.396L104.777 102.848L103.897 103.351L102.942 103.954L101.962 104.633L100.906 105.387L99.7997 106.267L98.6434 107.222L97.4374 108.278L96.2059 109.434L94.9237 110.716L93.6161 112.099L92.284 113.607L90.9266 115.266L89.5183 117.026L88.1111 118.936L86.7039 120.972L85.2458 123.185L84.5417 124.341L83.8132 125.523L83.0837 126.754L82.3552 128.036L81.6257 129.343L80.9216 130.675L80.1931 132.084L79.4636 133.516L78.735 135L78.0309 136.507L77.3024 138.066L76.5983 139.675L76.5973 139.674C59.1521 179.567 48.8714 187.26 48.8714 187.26C66.5682 187.26 76.7483 165.064 81.8514 151.917C96.5566 113.456 109.905 110.414 109.905 110.414C109.226 108.152 109.276 100.837 109.276 100.837L109.276 100.837ZM27.6052 101.362C29.9916 101.351 32.5839 101.89 35.2468 103.1L35.8503 103.402L36.4529 103.703L37.031 104.005L37.6101 104.331L38.1629 104.684L38.7156 105.036L39.243 105.388L39.7459 105.764L40.2489 106.166L40.702 106.569L41.1542 106.996L41.5819 107.423L41.9843 107.876L42.3603 108.328L42.6874 108.806L43.0146 109.284L43.3163 109.787L43.5673 110.289L43.7939 110.818L43.9951 111.371L44.1454 111.923L44.2714 112.476L44.372 113.054L44.4218 113.658V114.261L44.3964 114.89L44.3212 115.518L44.1962 116.147L44.0449 116.826L43.8437 117.479L43.5927 118.183L43.2909 118.886C40.0733 125.899 32.3808 127.458 23.4067 123.361C16.0446 119.971 13.4555 114.166 16.2711 108.156C18.1026 104.076 22.3582 101.391 27.6082 101.366L27.6052 101.362ZM209.373 111.471C208.116 114.236 203.29 120.244 203.29 120.244C232.525 133.491 232.625 151.364 232.625 151.364L233.052 151.314H233.48H233.932H234.41L234.913 151.339L235.416 151.389L235.943 151.415L236.471 151.49L236.999 151.54L237.527 151.616L238.608 151.792L239.664 151.993L240.192 152.094L240.695 152.194L241.198 152.295L241.675 152.394L242.127 152.495L242.579 152.596L243.007 152.696L243.409 152.797L243.761 152.897L244.114 152.972L244.414 153.049L244.692 153.124L244.817 153.174L244.943 153.199L245.043 153.224L245.144 153.25L245.219 153.274L245.294 153.3H245.37L245.42 153.325H245.471L245.495 153.35H245.521C241.147 122.205 209.373 111.471 209.373 111.471L209.373 111.471ZM127.387 111.989C127.138 111.991 126.882 112.002 126.62 112.024C122.724 112.351 107.968 116.097 94.9721 145.759L94.394 147.065L93.8412 148.297L93.3129 149.504L92.8099 150.635L92.308 151.741L91.8548 152.797L91.4027 153.803L90.9749 154.758L90.5482 155.688L90.1712 156.542L89.7943 157.397L89.4417 158.177L89.1155 158.905L88.8138 159.61L88.512 160.288L88.2357 160.891L87.9837 161.47L87.7327 162.023L87.5061 162.5L87.305 162.978L87.1292 163.38L86.9534 163.757L86.803 164.109L86.6516 164.41L86.5511 164.687L86.4505 164.913L86.3499 165.089L86.2747 165.265L86.2249 165.365L86.1995 165.466L86.1741 165.517V165.541V165.542C91.2017 162.023 101.205 158.704 101.205 158.704C114.05 119.59 133.306 114.06 133.306 114.06C133.306 114.06 131.119 111.961 127.386 111.989L127.387 111.989ZM139.064 119.539L137.405 120.519L135.796 121.575L134.237 122.707L132.754 123.913L131.321 125.195L129.939 126.527L128.607 127.885L127.324 129.293L126.118 130.751L124.937 132.209L123.83 133.692L122.774 135.2L121.769 136.684L120.814 138.167L119.909 139.65L119.055 141.108L118.274 142.516L117.52 143.923L116.842 145.256L116.188 146.537L115.61 147.77L115.083 148.95L114.58 150.031L114.152 151.037L113.775 151.968L113.449 152.771L113.172 153.501L112.946 154.104L112.846 154.355L112.77 154.582L112.694 154.782L112.644 154.934L112.594 155.06L112.569 155.16L112.544 155.21V155.234C115.988 154.178 123.554 153.299 123.554 153.299C129.436 136.532 144.091 125.019 144.091 125.019L139.064 119.539L139.064 119.539ZM196.225 125.674L196.1 125.825L195.974 125.976L195.697 126.252L195.37 126.504L195.043 126.755L194.667 127.007L194.29 127.233L193.862 127.459L193.434 127.66L193.008 127.861L192.555 128.063L192.077 128.238L191.599 128.414L191.122 128.565L190.67 128.741L190.191 128.866L189.714 129.018L189.236 129.144L188.784 129.243L188.356 129.344L187.929 129.444L187.527 129.545L187.125 129.621L186.773 129.696L186.446 129.772L186.119 129.822L185.868 129.872L185.742 129.898L185.616 129.922H185.515L185.416 129.947H185.34L185.239 129.973H185.189L185.138 129.998H185.089H185.063H185.039C204.144 140.405 210.101 151.917 210.101 151.917C214.148 150.862 222.393 150.812 222.393 150.812C216.083 134.925 196.224 125.674 196.224 125.674L196.225 125.674ZM350.772 127.685L349.264 127.986L349.49 132.436L336.218 145.231L325.635 147.594L323.749 142.666L322.266 142.944L325.534 157.448L326.967 157.121L326.59 151.867L337.097 149.479L354.518 154.959L356.026 158.277L357.509 157.951L355.096 147.167L353.638 147.468L353.865 151.918L339.687 147.82L350.547 137.137L352.256 141.285L353.714 140.958L350.772 127.685L350.772 127.685ZM150.024 133.09C150.024 133.09 140.345 139.852 135.142 153.677C135.142 153.677 139.113 153.627 140.948 153.954C142.758 154.356 145.599 154.406 145.599 154.406H145.601L145.726 153.778L145.902 153.149L146.103 152.496L146.355 151.867L146.631 151.214L146.907 150.56L147.235 149.932L147.561 149.279L147.913 148.65L148.29 148.021L148.667 147.393L149.069 146.79L149.471 146.186L149.873 145.608L150.276 145.055L150.677 144.502L151.079 143.974L151.482 143.447L151.859 142.968L152.236 142.516L152.587 142.089L152.94 141.662L153.266 141.285L153.568 140.958L153.844 140.631L154.096 140.38L154.297 140.129L154.398 140.028L154.473 139.927L154.574 139.852L154.623 139.776L154.699 139.701L154.749 139.651L154.775 139.626L154.799 139.6L154.825 139.576L150.024 133.09L150.024 133.09ZM5.20692 135.377C4.47796 137.413 3.27165 139.349 2.81919 141.511C1.43662 147.594 4.32706 152.07 8.97728 153.075C19.9874 155.564 20.8674 140.531 28.283 142.19C32.1039 142.994 33.3101 146.162 32.4803 149.756C32.1033 151.642 30.369 154.859 28.3328 155.337C26.9503 155.739 24.9649 155.79 22.5768 155.614L22.6266 157.171L29.9422 158.278C31.9783 156.443 33.5367 152.848 34.1903 149.857C35.6482 143.497 32.5315 139.022 27.0517 137.79C18.3291 135.83 17.097 150.812 8.80143 148.977C5.48328 148.198 3.99986 145.432 4.70372 142.239C5.53323 138.519 8.57488 137.74 11.9683 137.74L12.0689 136.257L5.20631 135.377L5.20692 135.377ZM325.591 209.408L322.097 220.066L323.555 220.569L325.591 216.648L346.506 223.359L316.743 236.808L314.254 244.55L315.687 245.028L317.798 241.106L343.061 249.175L342.483 253.599L343.916 254.051L347.385 243.091L345.952 242.665L343.841 246.762L321.619 239.623C328.205 236.581 349.346 227.004 353.443 225.169L354.096 223.057L326.42 214.234L327.024 209.836L325.591 209.408L325.591 209.408ZM2.17188 210.243L0.664062 210.618L3.45415 221.377L4.93757 220.975L4.56061 216.551L14.3887 217.431L17.2296 228.391L9.18547 234.424L7.3749 230.377L5.86708 230.754L9.08487 243.222L10.5927 242.845L10.3671 239.024L35.856 219.743L35.3286 217.531L3.83117 213.735L2.17194 210.241L2.17188 210.243ZM199.555 213.386L199.479 304.811L209.132 302.574L209.183 213.388H199.555L199.555 213.386ZM218.458 213.386L218.634 300.211L228.162 297.447L228.111 213.386H218.458V213.386ZM238.392 213.386V293.951C238.392 293.951 248.02 294.228 248.02 279.799V213.388H238.392V213.386ZM122.081 213.561V279.947C122.081 294.225 131.658 294.125 131.658 294.125V213.559H122.081V213.561ZM142.014 213.561V297.997L151.617 300.259V213.563H142.014V213.561ZM160.918 213.561L160.968 302.747L170.545 305.135V213.559H160.918L160.918 213.561ZM179.745 213.561V307.172L184.547 312.175L189.324 307.273L189.373 213.562H179.745L179.745 213.561ZM16.7781 217.76L29.4973 219.142L19.1151 226.96L16.7782 217.76L16.7781 217.76ZM38.9749 233.043L37.6419 233.696L38.8987 237.97L15.2949 250.011L12.6308 246.441L11.248 247.144L18.4876 261.423C23.0878 270.447 30.9558 275.475 41.4634 270.121C51.4681 265.068 50.764 256.169 46.491 247.823L38.9754 233.043H38.9749ZM41.2366 241.666C42.2169 243.275 43.122 244.884 43.9515 246.543C48.1495 254.788 46.9935 262.027 37.7934 266.678C30.2268 270.549 23.8662 268.01 20.3722 261.197L20.1466 260.72L19.92 260.268L19.7189 259.815L19.5177 259.337L19.3165 258.885L19.1407 258.432L18.9649 257.98L18.7892 257.528L18.462 256.622L18.3116 256.145L18.1349 255.692L17.9845 255.214L17.8341 254.736L17.6573 254.234L17.5069 253.732L41.2367 241.666L41.2366 241.666ZM317.72 252.022C312.729 252.142 308.104 254.849 304.552 260.595C299.424 268.891 301.737 277.361 310.384 282.741C318.026 287.441 326.699 286.436 332.731 276.758L333.183 275.979L333.586 275.2L333.963 274.445L334.29 273.665L334.591 272.886L334.842 272.132L335.044 271.353L335.219 270.598L335.345 269.844L335.446 269.09L335.521 268.336V267.607L335.496 266.853L335.446 266.123L335.345 265.42L335.219 264.716L335.044 264.012L334.842 263.309L334.616 262.63L334.34 261.977L334.013 261.323L333.661 260.695L333.284 260.066L332.857 259.462L332.404 258.884L331.901 258.306L331.398 257.753L330.82 257.2L330.242 256.698L329.614 256.195L328.961 255.717L328.256 255.264V255.266C324.723 253.07 321.135 251.941 317.72 252.023L317.72 252.022ZM315.955 256.251C318.911 256.185 322.158 257.033 325.365 259.034L325.943 259.411L326.497 259.764L327.049 260.165L327.577 260.542L328.08 260.944L328.583 261.372L329.06 261.799L329.513 262.227L329.966 262.679L330.368 263.157L330.77 263.609L331.122 264.087L331.473 264.59L331.801 265.093L332.077 265.596L332.329 266.123L332.554 266.651L332.756 267.179L332.907 267.733L333.032 268.285L333.133 268.863L333.183 269.441V270.02L333.158 270.623L333.108 271.227L333.008 271.829L332.856 272.433L332.655 273.062L332.404 273.69L332.128 274.344L331.775 274.997L331.398 275.65C327.301 282.286 319.508 282.839 311.162 277.636C304.249 273.362 302.364 267.304 305.908 261.648C307.938 258.394 311.634 256.347 315.954 256.251L315.955 256.251ZM55.5662 265.746L54.41 266.802L56.9998 270.823L35.431 286.484L32.3138 284.172L31.1575 285.228L38.1966 293.02L39.3021 292.015L37.1409 288.42L56.7222 273.966L56.7984 273.94L56.8482 273.966L44.732 299.984L45.0591 300.436L72.6095 290.859L72.7101 290.808L72.7863 290.859L55.743 309.234L52.2479 306.519L51.1424 307.525L59.715 317.077L60.8205 316.096L58.6086 312.502L76.6568 292.794H76.6578L80.2526 295.66L81.358 294.629L74.9985 287.54L51.5196 295.634L62.0528 272.986L55.5662 265.746L55.5662 265.746ZM295.05 274.72L286.427 284.549L287.533 285.554L291.002 282.789L310.986 300.335L308.674 304.08L309.755 305.086L318.453 295.232L317.296 294.227L313.853 297.017L293.894 279.522L296.155 275.7L295.05 274.72L295.05 274.72ZM283.486 287.591L260.788 305.966L264.834 312.501L266.066 311.496L264.18 306.619C265.186 305.739 266.267 304.734 267.499 303.754L271.822 300.26L288.363 320.746L284.97 324.442L285.975 325.623L297.036 316.649L296.105 315.492L291.782 317.956L275.191 297.494L279.615 293.95C280.897 292.895 282.204 291.964 283.385 291.135L287.307 294.353L288.564 293.297L283.486 287.591L283.486 287.591ZM84.5481 296.791L83.6682 297.947L86.7092 301.215L70.7725 322.456L66.8008 320.47L65.9209 321.626L76.378 329.545L77.3087 328.312L74.2666 325.07L90.2033 303.804H90.2043L94.1253 305.84L95.0804 304.634L84.5483 296.791L84.5481 296.791ZM97.8453 306.971L97.1666 308.353L100.787 310.892L89.1481 334.798V334.799L84.9 333.567L84.2467 334.949L94.5778 339.927L95.2311 338.619L91.486 335.955L101.717 314.941C103.753 321.904 110.239 344.15 111.445 348.449L113.431 349.454L126.226 323.287L130.474 324.518L131.103 323.135L120.972 318.209L120.294 319.591L123.913 322.129L114.286 341.938L105.211 310.516L97.8457 306.972L97.8453 306.971ZM249.527 312.174L247.466 313.255L251.11 344.752L248.145 347.19L248.849 348.522L258.702 343.319L257.974 341.937L253.776 343.37L252.267 333.642H252.268L262.297 328.263L270.039 334.622L266.545 337.388L267.224 338.72L278.612 332.637L277.908 331.304L274.187 332.41L249.527 312.174L249.527 312.174ZM250.382 318.534L260.412 326.754L251.99 331.254L250.382 318.534H250.382ZM224.463 323.182C223.4 323.189 222.31 323.367 221.248 323.687L207.245 327.835L207.622 329.268L212.273 328.715L219.814 354.153L215.591 356.215L216.044 357.648L228.814 353.902L228.386 352.444L224.012 352.947L220.896 342.49C222.505 341.988 224.063 341.485 225.395 340.932C229.266 344.149 233.515 347.291 237.939 350.233C238.291 350.459 240 350.333 241.055 350.308L244.525 350.182L244.575 348.724C241.609 348.422 238.844 346.236 236.631 344.602L228.914 338.896C231.302 336.005 232.81 332.133 231.754 328.489C230.585 324.68 227.649 323.163 224.462 323.183L224.463 323.182ZM134.976 323.938L134.574 325.447L138.621 327.257L131.884 352.997L127.435 352.62L127.058 354.053L139.778 357.371L140.179 355.938L136.132 354.103L142.894 328.388L147.268 328.764L147.645 327.256L134.976 323.938L134.976 323.938ZM221.132 325.745C224.57 325.62 226.938 327.629 228.061 331.53C229.821 337.513 227.382 338.493 222.128 340.052L222.003 340.077L221.903 340.127L221.777 340.152L221.651 340.178L221.4 340.253L221.299 340.278L221.173 340.328L221.048 340.353L220.948 340.379L220.847 340.429L220.721 340.454L220.621 340.479L220.57 340.504H220.52L220.495 340.529H220.445L220.394 340.555H220.344L216.373 327.107C216.976 326.754 217.755 326.452 218.584 326.176C219.489 325.917 220.339 325.774 221.132 325.745L221.132 325.745ZM204.457 328.389L175.423 330.475L175.046 338.116L176.529 337.99L177.786 332.963C179.144 332.812 180.627 332.585 182.186 332.46L187.716 332.083L189.601 358.377L184.724 359.482L184.825 360.966L199.053 359.985L198.927 358.427L193.95 358.025L192.014 331.757L197.72 331.354C199.329 331.254 200.938 331.204 202.371 331.204L203.803 336.055L205.462 335.955L204.458 328.388L204.457 328.389ZM160.081 329.112C155.136 329.29 151.901 332.344 151.417 336.457C150.084 347.693 165.142 347.015 164.237 354.606C163.734 358.477 160.742 359.986 157.098 359.533C155.162 359.307 151.845 357.924 151.066 355.939C150.638 354.657 150.311 352.671 150.235 350.307L148.753 350.458L148.376 357.874C150.362 359.684 154.107 360.915 157.149 361.242C163.634 362.021 167.782 358.528 168.46 352.947C169.491 343.973 154.509 344.324 155.49 335.853C155.892 332.535 158.482 330.75 161.75 331.153C165.52 331.58 166.676 334.571 166.953 337.889L168.461 337.839L168.687 330.926C166.576 330.474 164.464 329.418 162.302 329.217C161.529 329.12 160.788 329.087 160.081 329.112L160.081 329.112Z" fill="black"/>
<path d="M183.527 163.522C182.469 163.503 178.028 163.596 174.685 166.346C174.685 166.346 169.331 170.116 169.205 176.25C169.205 176.25 169.984 183.942 175.464 186.757C175.464 186.757 175.69 187.486 183.885 191.206C183.885 191.206 189.315 192.741 189.24 196.612C189.24 196.612 190.069 201.588 183.433 201.765C183.433 201.765 178.003 202.494 175.088 197.718C172.649 193.796 173.202 190.479 173.026 189.825L168.602 193.093L168.552 202.921C168.552 202.921 174.912 207.018 182.001 206.918C182.001 206.918 190.07 206.969 193.941 203.098C193.941 203.098 198.264 200.558 198.214 193.469C198.163 186.557 195.6 183.238 189.467 180.473C189.467 180.473 184.715 178.915 182.729 178.463C182.729 178.463 178.129 176.929 178.28 173.385C178.405 171.876 179.135 168.131 184.715 168.181C192.508 168.282 191.905 176.754 191.905 177.382L196.505 174.44L195.725 164.964C195.725 164.964 193.187 165.366 189.19 164.034L189.09 164.008L188.989 163.984L188.863 163.933L188.737 163.908L188.612 163.883L188.461 163.858L188.31 163.833L188.159 163.807L187.983 163.783L187.807 163.757L187.632 163.732L187.455 163.707L187.279 163.682H187.078L186.701 163.631L186.324 163.606L185.922 163.582L185.545 163.556L185.142 163.531H184.967H184.791H184.59H184.414H184.238H184.087H183.936H183.76C183.76 163.531 183.678 163.526 183.527 163.523L183.527 163.522ZM221.942 164.467L207.472 200.983C204.862 201.332 203.144 201.889 203.144 201.889H203.191V206.467H219.8V201.889C219.8 201.889 218.184 201.348 215.66 200.998L217.691 196.061H230.863L232.848 200.983C230.771 201.361 229.35 201.782 229.254 201.811H229.207V201.826V206.467H247.738V201.889H247.723C247.667 201.87 245.544 201.16 242.66 200.733L229.082 164.467H221.941L221.942 164.467ZM136.721 164.967L117.549 165.045V169.67H117.611C117.611 169.67 119.58 170.257 122.221 170.702C122.2 173.548 122.065 193.602 122.721 195.358C123.45 197.067 123.633 199.647 126.549 202.311C126.549 202.311 132.246 207.664 140.893 207.186C140.893 207.186 150.072 207.513 154.596 201.983C154.596 201.983 158.598 198.852 158.925 192.467V170.592C161.75 170.258 163.628 169.67 163.628 169.67H163.581V164.967H146.909V169.67C146.909 169.67 148.45 170.156 150.846 170.498V192.546C150.846 192.546 151.555 201.482 141.424 202.311C141.424 202.311 132.752 202.824 132.752 192.467V170.639C135.07 170.203 136.689 169.67 136.689 169.67H136.721V164.967L136.721 164.967ZM224.162 179.062L228.537 190.422H219.865L224.16 179.062L224.162 179.062Z" fill="#959595"/>
</svg>
